<svg width="34" height="32" viewBox="0 0 34 32" fill="none" xmlns="http://www.w3.org/2000/svg">
<path d="M11.341 10.6504C11.6651 10.6037 11.9459 10.4013 12.0926 10.1086L16.5084 1.29644L16.5084 1.29638C16.7064 0.901206 17.2936 0.901206 17.4916 1.29638L17.4916 1.29644L21.9074 10.1086C22.0541 10.4013 22.3348 10.6037 22.6589 10.6504L32.534 12.0722C32.9979 12.139 33.1394 12.6691 32.839 12.9574C32.839 12.9574 32.839 12.9574 32.839 12.9574L25.6946 19.812C25.4544 20.0424 25.3446 20.3772 25.4017 20.7051L27.0878 30.3887L27.0878 30.3887C27.1565 30.7833 26.7206 31.1565 26.2906 30.9337L17.46 26.3592C17.1715 26.2098 16.8285 26.2098 16.54 26.3592L7.70933 30.9337L8.1693 31.8217L7.70932 30.9337C7.27939 31.1565 6.84343 30.7834 6.91214 30.3887C6.91214 30.3886 6.91215 30.3886 6.91215 30.3886L8.5982 20.7051C8.65529 20.3772 8.54551 20.0424 8.30535 19.812L1.1611 12.9574L1.16107 12.9574C0.860664 12.6692 1.00202 12.139 1.46599 12.0722L1.32349 11.0824L1.466 12.0722L11.341 10.6504Z" stroke="#D3FC01" stroke-width="2" stroke-linecap="round" stroke-linejoin="round"/>
</svg>
